PathFileType	4	(X/Y/Z)	C:/Users/beibeiliu/ov580/test_trc/User3\sequence.51_training_dense_right.trc
DataRate	CameraRate	NumFrames	NumMarkers	Units	OrigDataRate	OrigDataStartFrame	OrigNumFrames
120	120	25	19	mm	120	34	100
Frame#	Time	ThumbCMC			ThumbMCP			ThumbIP			ThumbTip			IndexMCP			IndexPIP			IndexTip			MiddleMCP			MiddlePIP			MiddleTip			RingMCP			RingPIP			RingTip			PinkyMCP			PinkyPIP			PinkyTip			BackHand1			BackHand2			BackHand3	
		X0	Y0	Z0	X1	Y1	Z1	X2	Y2	Z2	X3	Y3	Z3	X4	Y4	Z4	X5	Y5	Z5	X6	Y6	Z6	X7	Y7	Z7	X8	Y8	Z8	X9	Y9	Z9	X10	Y10	Z10	X11	Y11	Z11	X12	Y12	Z12	X13	Y13	Z13	X14	Y14	Z14	X15	Y15	Z15	X16	Y16	Z16	X17	Y17	Z17	X18	Y18	Z18	
33	0.275	210.33	8.94967	62.7049	200.341	33.1199	37.8984	182.594	44.6554	14.1385	155.623	40.5617	-0.448744	196.743	-10.2029	-13.7367	184.121	12.7777	-31.2417	176.463	32.5942	-6.08877	170.402	-18.7807	-10.4788	159.453	9.95749	-26.7956	161.09	29.3846	7.00716	151.576	-17.2466	-3.8182	139.96	8.97159	-8.55561	145.407	23.2952	19.9503	138.071	-19.9958	14.275	127.265	3.68022	5.34413	133.694	29.9633	25.0496	173.441	-43.6219	47.132	177.584	-44.086	74.067	206.807	-28.5549	56.6408	
34	0.283333	210.071	12.4395	62.5307	203.044	36.6848	36.5662	187.619	45.2128	16.961	163.498	45.6666	-2.19723	193.302	-1.43049	-9.70315	181.653	29.7177	-20.6708	178.091	38.4776	8.50837	175.89	-4.89188	-13.6646	160.123	21.7441	-16.0919	164.563	26.7787	24.9903	157.902	-11.7396	-2.1234	142.856	12.7085	-2.4731	155.238	21.8209	30.8129	143.064	-21.2903	13.0119	130.317	2.0558	5.72287	138.014	22.4653	25.9701	176.373	-40.0012	48.2038	182.077	-41.4924	76.9032	208.515	-24.0974	54.5563	
35	0.291667	210.429	18.5599	67.8943	205.049	42.1239	37.8528	194.814	55.6237	15.6213	173.923	52.2926	-1.06619	197.832	10.3421	-11.7322	177.717	32.1818	-16.007	176.196	43.4085	15.1825	176.221	0.729245	-13.0405	158.145	26.9168	-9.04191	162.085	25.4465	29.922	160.113	-11.4048	-1.02012	146.101	17.3084	1.87568	155.717	16.5176	35.8136	149.621	-22.8824	8.2196	136.473	-3.48374	1.97168	139.855	15.6195	27.021	187.287	-37.0654	45.9392	187.658	-39.1926	78.5415	210.857	-19.7133	57.0557	
36	0.3	208.495	26.778	65.9121	202.235	48.2748	44.4808	195.002	62.9263	14.2858	179.436	64.1903	-3.44418	198.923	14.7403	-9.48451	178.277	39.1502	-16.684	167.384	43.8459	13.1591	184.654	6.37117	-13.0311	160.389	25.4521	-11.7533	162.874	28.4354	30.1096	169.771	-9.74687	-3.20128	147.871	13.1526	0.193182	156.661	15.7566	31.721	158.251	-26.8074	9.27997	139.415	-3.39187	0.68102	140.571	11.4979	21.8113	194.336	-30.7964	45.5203	196.354	-33.8003	72.5547	215.729	-9.54539	61.1669	
37	0.308333	199.032	34.5608	72.0401	191.24	57.4162	47.3629	183.269	71.3069	17.0319	170.119	70.1997	-3.17063	203.227	25.2227	-6.18328	178.17	39.1017	-21.2704	159.72	49.4974	6.2993	191.973	9.69492	-14.1937	162.468	22.3163	-18.4968	153.82	24.5229	20.763	180.893	-8.28786	-6.03053	152.242	8.89965	-6.93782	151.556	15.8145	23.2763	170.16	-26.054	3.92587	148.319	-8.47301	-3.64879	143.381	6.78603	21.1689	205.075	-24.981	46.508	203.655	-30.0628	72.3269	218.062	3.22171	58.0246	
38	0.316667	182.28	41.547	75.262	167.003	57.8445	49.3495	156.305	69.1377	20.2555	145.195	66.0992	0.78016	197.994	41.1175	-6.09221	172.816	48.3293	-23.6231	145.591	44.1916	-5.64193	197.499	19.3644	-12.1928	168.6	26.9698	-26.5471	142.291	23.6611	5.959	189.164	2.89356	-8.85854	161.581	2.94158	-17.5511	144.315	9.63589	11.7488	186.843	-19.7346	4.17786	163.497	-16.3569	-9.92208	144.357	-4.27555	8.88469	211.715	-8.54802	47.7794	211.852	-13.1344	73.6922	214.75	19.8936	63.0495	
39	0.325	162.401	44.4874	77.6926	146.052	52.0871	46.323	134.91	55.9882	20.3875	125.533	51.3564	0.799337	186.934	54.7627	4.82326	166.935	57.4758	-22.5864	135.742	45.0736	-18.7293	194.183	38.2354	-9.6458	167.722	32.5708	-30.7803	136.478	17.4812	-12.8499	191.905	11.4425	-8.5339	165.621	8.1724	-21.7055	139.809	3.38086	-0.182799	194.362	-5.90677	3.81615	172.006	-11.0994	-14.2471	145.382	-9.97073	-0.411612	212.518	4.28398	49.1697	210.685	-4.09723	78.566	202.869	34.6206	68.0069	
40	0.333333	148.957	40.8267	77.013	130.166	42.5923	49.9578	117.282	45.2236	22.6912	115.393	38.5896	-0.901958	172.638	62.7833	8.26055	156.574	59.637	-20.0127	127.812	41.7019	-26.0763	187.434	45.3141	-4.44679	166.846	43.7971	-28.7251	133.571	20.9489	-29.3794	189.775	20.2054	-1.92107	166.588	14.4023	-22.8393	140.184	-1.72784	-14.6748	195.964	-0.026392	4.13026	176.645	-6.28948	-15.6629	150.056	-13.5284	-12.5536	206.02	18.6649	52.1717	208.066	7.79602	80.5141	189.658	37.8873	71.9253	
41	0.341667	138.215	35.3739	79.3582	116.77	35.7159	53.4545	108.658	36.52	22.4575	105.583	30.589	-2.93255	154.888	68.8924	12.1355	140.791	65.4677	-16.6691	119.649	50.0494	-29.0861	171.792	57.219	-2.66964	156.977	49.7039	-28.5628	129.937	24.7385	-39.0392	180.231	31.0465	-2.83214	162.831	24.1941	-22.1925	136.595	-0.617471	-21.5082	192.494	10.9793	7.88086	173.73	6.48162	-15.7423	154.822	-7.96344	-20.779	199.419	28.1529	56.7183	199.294	16.7224	79.5494	174.85	45.7851	76.931	
42	0.35	128.336	29.6861	80.2623	108.862	25.7174	54.3186	97.2409	26.9949	22.9519	95.8349	22.9429	-2.77467	138.415	68.1889	12.6103	126.233	66.9552	-11.1027	109.673	52.322	-29.8835	156.982	61.0709	0.340668	144.456	56.8237	-23.5331	121.63	34.2462	-43.6308	166.63	41.482	3.29344	153.769	31.3798	-22.0151	134.916	11.503	-30.1172	186.265	22.84	9.50248	176.611	18.6221	-14.0822	156.409	4.22597	-28.4499	187.635	37.0231	59.5423	191.943	24.7937	81.5327	160.641	48.8992	76.9509	
43	0.358333	116.07	20.9698	82.3519	102.222	14.9438	53.8117	90.7636	13.9232	25.7128	89.8893	11.1264	2.28755	122.012	63.9907	20.2629	104.712	65.5375	-10.0703	94.8762	55.1756	-29.4269	138.646	60.715	8.59377	122.844	58.7999	-20.0899	108.798	40.9674	-43.8143	155.556	48.6362	7.21651	142.679	41.5322	-21.8697	134.254	22.1256	-38.9918	177.566	35.0261	11.2449	168.468	34.5231	-11.3577	158.11	22.7188	-32.1866	173.94	42.0471	61.8633	181.406	31.7832	83.8988	149.719	44.4725	81.5276	
44	0.366667	113.276	12.6988	77.1493	97.0537	4.27192	53.1214	86.743	1.42489	24.4526	85.2651	-1.10898	-0.498766	104.24	59.3875	16.3481	92.199	59.3154	-6.04261	87.1053	52.9587	-33.1715	122.609	58.7796	6.09293	113.415	56.495	-21.8824	99.9602	44.8964	-49.0837	144.111	52.7779	4.46109	134.831	52.7157	-21.6034	129.939	41.976	-44.8369	166.075	41.3878	15.1669	165.896	46.2681	-10.529	157.668	44.5259	-31.7956	162.859	47.4298	58.18	172.72	32.1665	85.6777	135.801	41.621	81.8016	
45	0.375	111.554	6.62256	74.9227	94.4485	-2.96521	47.9332	83.2446	-7.8438	20.0781	82.1182	-11.9308	-4.89221	104.182	50.3545	14.949	89.11	50.5315	-10.7004	82.6568	48.1332	-38.4277	118.753	54.6876	3.88153	109.287	54.3597	-20.77	101.193	49.4672	-53.5555	142.092	50.8103	7.77868	135.691	56.4484	-20.9688	131.561	56.2343	-46.3596	169.433	44.9673	14.3827	167.354	50.895	-3.64696	171.643	58.0205	-29.3423	155.813	44.4167	58.2398	170.565	36.1062	85.0198	127.189	39.7457	76.2337	
46	0.383333	109.425	2.85106	73.2667	96.9542	-6.88749	48.23	83.7099	-14.5414	18.2405	82.8086	-20.1639	0.607773	101.922	39.6632	7.73394	95.0804	40.1459	-18.5692	89.017	38.0772	-46.8592	123.487	48.4954	-1.33386	114.013	49.3444	-28.1888	107.813	48.4383	-58.2138	145.255	47.8928	4.69518	141.034	54.7563	-22.602	138.822	58.331	-48.2982	174.584	44.4935	13.6992	177.171	52.4276	-8.11959	176.14	59.533	-26.0998	159.153	44.4691	50.4257	166.822	40.4196	78.8653	129.749	37.7354	70.7274	
47	0.391667	112.664	5.60427	75.63	91.8641	-5.24317	51.2663	77.5385	-13.058	27.0634	73.78	-18.6129	5.35802	104.291	28.1862	2.54546	99.8117	25.7921	-25.6118	89.8895	20.8343	-47.2292	130.252	40.1121	-9.38386	121.4	39.4891	-36.6494	113.231	39.7935	-65.5152	151.552	40.2168	0.443148	151.55	45.9537	-28.2149	149	47.5172	-51.286	176.887	35.9943	12.0517	178.808	41.6719	-8.15425	184.352	48.9541	-27.813	159.466	43.5388	50.5151	162.743	41.3714	80.228	128.166	36.4688	69.3062	
48	0.4	104.464	13.1263	78.2228	84.1277	6.94703	58.5805	65.9205	2.91082	33.2258	55.8045	-3.32374	19.5879	103.413	24.072	-4.19485	92.8116	18.4053	-20.5262	89.3019	14.5545	-44.4863	131.684	31.6118	-10.8994	123.167	29.6957	-34.879	117.244	29.846	-65.2523	150.335	28.3902	-2.881	152.703	27.2285	-25.9496	154.715	22.9299	-57.8523	177.085	19.5155	12.366	185.959	19.0022	-8.69127	187.781	18.668	-29.9185	159.152	37.4388	50.4834	163.894	40.5589	75.8177	126.8	38.8844	66.2166	
49	0.408333	103.111	20.0687	75.7329	81.1456	14.9032	53.288	61.5091	10.2642	37.581	47.9534	5.99774	20.4052	102.996	29.4787	-0.22876	90.5997	26.471	-25.9499	82.6985	26.0351	-48.2838	127.626	31.4313	-6.98261	126.541	27.5183	-38.9697	119.182	23.9307	-64.9058	152.622	17.7905	-5.41647	148.667	10.5444	-26.9919	150.646	-4.08241	-53.8287	171.21	9.68989	10.9861	179.747	-1.72712	-7.79511	182.254	-6.40018	-26.4885	157.92	37.7558	46.6704	160.227	39.0094	75.0818	127.059	43.8822	65.0235	
50	0.416667	97.8499	20.5376	73.2164	79.0184	11.4009	54.2958	62.8191	6.10939	34.7855	47.468	1.47909	17.1895	99.129	36.3058	-0.823971	88.3926	36.2499	-23.294	81.7264	37.5451	-45.0446	125.626	29.0291	-13.8996	120.457	20.7408	-36.0407	120.081	7.5505	-65.5049	150.948	14.2329	-5.6263	147.723	1.02347	-25.2293	147.166	-21.4701	-46.7531	169.777	7.15912	8.08562	171.47	-4.30434	-10.1685	179.337	-19.5862	-25.418	153.467	39.733	43.1104	159.156	42.1249	73.1373	126.957	43.839	64.9028	
51	0.425	99.1562	15.977	77.8265	84.649	7.30633	50.4986	70.7715	-0.862557	30.6085	57.8948	-6.75377	10.9933	101.939	37.2027	3.04258	91.6887	35.8578	-20.3117	79.5414	36.7221	-44.8512	125.053	27.8645	-8.2068	118.012	13.5038	-33.1845	110.59	-12.1854	-58.3091	150.005	18.4688	-4.23873	141.805	0.977401	-28.2684	142.472	-24.227	-42.814	169.338	14.4752	5.80424	174.79	2.39311	-10.6132	172.927	-16.0904	-32.5858	153.708	41.8315	44.8751	163.202	41.4631	75.7437	124.44	44.9978	66.6461	
52	0.433333	101.513	15.5773	78.1806	85.9698	3.63632	52.2884	77.3731	-2.79267	26.3337	69.2553	-10.4616	6.58762	100.245	42.5591	3.23083	85.9924	40.2629	-21.2445	81.895	29.3956	-47.955	123.057	35.4466	-8.36142	112.635	18.3743	-30.4716	112.686	-15.6073	-45.4033	143.345	29.7442	-4.53404	139.58	12.9685	-26.9407	137.067	-18.1453	-36.553	167.171	25.1456	8.78834	168.747	14.8309	-14.8808	164.414	-6.30147	-30.77	156.414	45.4174	49.8945	160.406	41.3937	82.1395	127.407	44.2726	70.4034	
53	0.441667	103.22	18.7831	79.0716	86.1425	6.70553	52.1128	79.713	-0.713836	26.3888	81.3314	-6.4553	-2.3555	101.793	51.3328	9.62747	91.0879	48.1755	-17.4394	84.7165	29.6798	-39.3946	121.902	49.6521	-2.06383	114.873	31.5062	-32.8568	113.535	-3.16528	-36.9194	146.088	39.6113	-3.70231	140.806	22.1788	-25.4286	130.032	-11.144	-23.8523	168.344	30.4616	10.1938	167.956	18.5301	-13.4979	154.299	-2.89797	-24.4943	158.188	49.2403	55.1269	162.964	44.066	82.8084	126.401	50.6447	73.9192	
54	0.45	107.269	21.4616	77.3489	92.6419	9.65813	50.7479	84.7216	3.15859	20.0732	89.5751	-4.33847	-0.968105	105.632	59.6165	6.4838	91.94	54.4289	-21.4049	86.573	35.4831	-38.6045	126.218	58.1728	-2.6652	117.189	41.4018	-32.0098	111.18	7.56778	-32.7725	145.238	43.0288	-2.55253	143.242	23.9169	-24.0178	132.955	-6.14518	-18.8253	167.306	33.838	6.62106	162.046	19.1918	-14.6306	149.276	-8.17451	-19.3197	157.351	51.1304	53.2037	166.495	44.0033	83.5259	128.762	54.6004	72.2055	
55	0.458333	109.81	21.0133	74.8586	95.9244	10.0825	45.5009	87.4369	0.673176	20.7852	94.6641	-5.10773	-5.26103	108.643	61.0149	8.73949	100.739	60.6091	-20.0186	93.2986	47.0624	-41.3433	130.522	56.0936	-2.79791	121.272	41.2321	-30.9329	116.953	2.08166	-34.3199	152.888	41.9545	-0.0674371	140.952	22.8057	-25.0096	138.243	-8.95718	-23.0901	170.928	34.8861	10.957	169.412	22.6019	-15.6617	154.539	2.19402	-25.0719	162.091	51.4985	53.4223	167.927	42.0439	84.2492	129.08	52.9336	72.9461	
56	0.466667	110.389	19.0249	74.1955	95.9833	6.36248	45.5886	88.6977	0.484782	18.8745	87.6923	-6.73486	-4.16694	113.514	56.9674	6.39986	103.257	58.7533	-16.6515	97.0923	53.5739	-44.8754	131.671	47.6475	-3.74916	125.141	31.0999	-29.0831	117.492	-4.84945	-37.6679	151.732	40.3588	1.04548	150.049	24.9286	-26.788	144.289	-2.77804	-36.0568	172.994	36.2249	12.8636	178.546	31.1275	-13.134	171.446	12.9195	-32.8974	164.699	47.0449	55.9731	168.789	41.3698	84.1428	133.809	49.4202	72.0084	
57	0.475	109.974	15.5697	75.748	93.8697	6.49433	45.2689	82.627	-0.0185986	17.7714	81.7744	-5.70461	1.17728	110.347	48.9775	6.06044	104.422	47.2151	-19.9329	99.6262	42.0798	-45.7614	132.803	37.9128	-4.81641	122.957	18.7374	-29.0092	119.343	-10.7428	-41.6448	155.701	37.5874	0.505086	151.168	29.1534	-25.4056	143.314	9.66618	-47.1399	179.397	35.9752	12.2746	179.75	36.1392	-9.05228	181.858	29.0918	-37.2555	161.069	46.5224	56.5175	168.896	40.2551	81.2713	134.192	46.6016	71.9192	
